<svg width="406" height="406" viewBox="0 0 406 406" fill="none" xmlns="http://www.w3.org/2000/svg">
<path d="M403 203C403 313.457 313.457 403 203 403C92.5431 403 3 313.457 3 203C3 92.5431 92.5431 3 203 3C313.457 3 403 92.5431 403 203Z" fill="white" stroke="black" stroke-width="5"/>
<path d="M191.189 49L199.925 26.6L206.197 26.6L214.805 49H208.853L206.997 43.656H198.805L196.917 49H191.189ZM200.309 39.4H205.525L202.933 31.976L200.309 39.4Z" fill="black"/>
<path d="M233.527 51.7472L239.325 30.1104L248.134 32.4709C249.638 32.8739 250.972 33.5406 252.137 34.471C253.327 35.3863 254.277 36.4579 254.986 37.6859C255.715 38.9194 256.179 40.2805 256.376 41.769C256.6 43.2424 256.507 44.7415 256.099 46.2664C255.701 47.7501 255.037 49.074 254.107 50.2382C253.197 51.4079 252.118 52.3445 250.869 53.048C249.641 53.757 248.283 54.2102 246.795 54.4077C245.327 54.6107 243.841 54.5107 242.336 54.1076L233.527 51.7472ZM246.916 37.0146L243.424 36.0787L240.061 48.628L243.554 49.5639C244.296 49.7627 245.038 49.7958 245.78 49.6634C246.528 49.5104 247.213 49.2192 247.836 48.7898C248.48 48.366 249.038 47.8087 249.51 47.1181C250.003 46.4329 250.365 45.6576 250.597 44.7922C250.834 43.9061 250.911 43.0432 250.827 42.2034C250.769 41.3486 250.567 40.5768 250.221 39.8879C249.902 39.1839 249.457 38.5787 248.886 38.0723C248.315 37.5659 247.658 37.2134 246.916 37.0146Z" fill="black"/>
<path d="M271.634 64.802L282.834 45.403L290.732 49.963C292.081 50.7417 293.197 51.731 294.081 52.931C294.994 54.1231 295.634 55.404 296.001 56.7737C296.386 58.154 296.482 59.5886 296.287 61.0775C296.122 62.5586 295.644 63.9827 294.855 65.3499C294.087 66.6801 293.103 67.7871 291.903 68.6708C290.722 69.5653 289.437 70.1906 288.049 70.547C286.679 70.914 285.25 71.0002 283.761 70.8057C282.29 70.6219 280.881 70.1406 279.532 69.362L271.634 64.802ZM288.38 54.0368L285.249 52.2288L278.753 63.4802L281.884 65.2882C282.549 65.6722 283.257 65.8963 284.009 65.9605C284.77 66.0062 285.508 65.9023 286.221 65.6488C286.952 65.406 287.635 65.0121 288.27 64.4672C288.924 63.933 289.474 63.2779 289.922 62.5019C290.381 61.7075 290.678 60.8938 290.814 60.0609C290.979 59.2202 290.984 58.4224 290.829 57.6675C290.703 56.9049 290.429 56.2051 290.009 55.5682C289.588 54.9312 289.045 54.4208 288.38 54.0368Z" fill="black"/>
<path d="M346.709 108.519L350.783 106.167L360.751 123.432L356.677 125.784L353.077 119.549L337.752 128.397L335 123.63L350.325 114.782L346.709 108.519Z" fill="black"/>
<path d="M349.746 155.652L371.382 149.855L374.198 160.364C374.497 161.477 374.595 162.543 374.493 163.565C374.417 164.601 374.159 165.532 373.717 166.357C373.302 167.197 372.721 167.915 371.976 168.513C371.236 169.131 370.361 169.575 369.351 169.845C367.991 170.21 366.676 170.165 365.406 169.71C364.141 169.276 363.078 168.523 362.216 167.45L354.748 174.321L353.158 168.387L360.05 162.333L359.114 158.84L351.17 160.969L349.746 155.652ZM369.677 161.045L368.418 156.347L363.287 157.722L364.546 162.42C364.767 163.244 365.18 163.84 365.787 164.208C366.399 164.596 367.086 164.688 367.848 164.484C368.611 164.279 369.16 163.856 369.496 163.214C369.837 162.592 369.898 161.87 369.677 161.045Z" fill="black"/>
<path d="M357 191.189L379.4 199.925V206.197L357 214.805V208.853L362.344 206.997V198.805L357 196.917V191.189ZM366.6 200.309V205.525L374.024 202.933L366.6 200.309Z" fill="black"/>
<path d="M354.253 233.527L375.89 239.325L373.529 248.134C373.126 249.638 372.459 250.972 371.529 252.137C370.614 253.327 369.542 254.277 368.314 254.986C367.081 255.715 365.72 256.179 364.231 256.376C362.758 256.6 361.258 256.507 359.734 256.099C358.25 255.701 356.926 255.037 355.762 254.107C354.592 253.197 353.655 252.118 352.952 250.869C352.243 249.641 351.79 248.283 351.592 246.795C351.389 245.327 351.489 243.841 351.892 242.336L354.253 233.527ZM368.985 246.916L369.921 243.424L357.372 240.061L356.436 243.554C356.237 244.296 356.204 245.038 356.337 245.78C356.49 246.528 356.781 247.213 357.21 247.836C357.634 248.48 358.191 249.038 358.882 249.51C359.567 250.003 360.342 250.365 361.208 250.597C362.094 250.834 362.957 250.911 363.797 250.827C364.651 250.769 365.423 250.567 366.112 250.221C366.816 249.902 367.421 249.457 367.928 248.886C368.434 248.315 368.787 247.658 368.985 246.916Z" fill="black"/>
<path d="M340.464 272.906L359.863 284.106L351.399 298.766L347.408 296.462L353.12 286.569L349.434 284.441L345.402 291.424L341.522 289.184L345.554 282.201L341.702 279.977L335.926 289.981L331.936 287.677L340.464 272.906Z" fill="black"/>
<path d="M281.071 335.602L284.591 341.699L288.152 335.578L292.163 337.918L288.658 344.006L295.683 344.015L295.704 348.659L288.623 348.682L292.143 354.779L288.097 357.115L284.577 351.018L281.072 357.107L277.06 354.767L280.566 348.678L273.54 348.67L273.52 344.026L280.545 344.035L277.025 337.938L281.071 335.602Z" fill="black"/>
<path d="M214.811 357L206.075 379.4H199.803L191.195 357H197.147L199.003 362.344H207.195L209.083 357H214.811ZM205.691 366.6H200.475L203.067 374.024L205.691 366.6Z" fill="black"/>
<path d="M172.473 354.253L166.675 375.89L157.866 373.529C156.362 373.126 155.028 372.459 153.863 371.529C152.673 370.614 151.723 369.542 151.014 368.314C150.285 367.081 149.821 365.72 149.624 364.231C149.4 362.758 149.493 361.258 149.901 359.734C150.299 358.25 150.963 356.926 151.893 355.762C152.803 354.592 153.882 353.655 155.131 352.952C156.359 352.243 157.717 351.79 159.205 351.592C160.673 351.389 162.159 351.489 163.664 351.892L172.473 354.253ZM159.084 368.985L162.576 369.921L165.939 357.372L162.446 356.436C161.704 356.237 160.962 356.204 160.22 356.337C159.472 356.49 158.787 356.781 158.164 357.21C157.52 357.634 156.962 358.191 156.49 358.882C155.997 359.567 155.635 360.342 155.403 361.208C155.166 362.094 155.089 362.957 155.173 363.797C155.231 364.651 155.433 365.423 155.779 366.112C156.098 366.816 156.543 367.421 157.114 367.928C157.685 368.434 158.342 368.787 159.084 368.985Z" fill="black"/>
<path d="M134.366 341.198L123.166 360.597L115.268 356.037C113.919 355.258 112.803 354.269 111.919 353.069C111.006 351.877 110.366 350.596 109.999 349.226C109.614 347.846 109.518 346.411 109.713 344.922C109.878 343.441 110.356 342.017 111.145 340.65C111.913 339.32 112.897 338.213 114.097 337.329C115.278 336.435 116.563 335.809 117.951 335.453C119.321 335.086 120.75 335 122.239 335.194C123.71 335.378 125.119 335.859 126.468 336.638L134.366 341.198ZM117.62 351.963L120.751 353.771L127.247 342.52L124.116 340.712C123.451 340.328 122.743 340.104 121.991 340.04C121.23 339.994 120.492 340.098 119.779 340.351C119.048 340.594 118.365 340.988 117.73 341.533C117.076 342.067 116.526 342.722 116.078 343.498C115.619 344.293 115.322 345.106 115.186 345.939C115.021 346.78 115.016 347.578 115.171 348.332C115.297 349.095 115.571 349.795 115.991 350.432C116.412 351.069 116.955 351.579 117.62 351.963Z" fill="black"/>
<path d="M59.2912 297.481L55.2174 299.833L45.2494 282.568L49.3232 280.216L52.9232 286.451L68.2484 277.603L71.0004 282.37L55.6752 291.218L59.2912 297.481Z" fill="black"/>
<path d="M56.2543 250.348L34.6176 256.145L31.8016 245.636C31.5034 244.523 31.4053 243.457 31.5071 242.435C31.5828 241.399 31.8415 240.468 32.283 239.643C32.6983 238.803 33.2788 238.085 34.0242 237.487C34.7642 236.869 35.639 236.425 36.6488 236.155C38.0088 235.79 39.3239 235.835 40.5942 236.29C41.859 236.724 42.9222 237.477 43.7837 238.55L51.2518 231.679L52.842 237.613L45.9501 243.667L46.886 247.16L54.8298 245.031L56.2543 250.348ZM36.3233 244.955L37.5822 249.653L42.7132 248.278L41.4543 243.58C41.2334 242.756 40.8198 242.16 40.2133 241.792C39.6013 241.404 38.9141 241.312 38.1517 241.516C37.3892 241.721 36.8401 242.144 36.5042 242.786C36.1627 243.408 36.1024 244.13 36.3233 244.955Z" fill="black"/>
<path d="M49 214.811L26.6 206.075V199.803L49 191.195V197.147L43.656 199.003V207.195L49 209.083V214.811ZM39.4 205.691V200.475L31.976 203.067L39.4 205.691Z" fill="black"/>
<path d="M51.7471 172.473L30.1104 166.675L32.4708 157.866C32.8739 156.362 33.5406 155.028 34.471 153.863C35.3862 152.673 36.4579 151.723 37.6859 151.014C38.9194 150.285 40.2804 149.821 41.7689 149.624C43.2423 149.4 44.7415 149.493 46.2664 149.901C47.75 150.299 49.074 150.963 50.2382 151.893C51.4079 152.803 52.3445 153.882 53.048 155.131C53.757 156.359 54.2102 157.717 54.4077 159.205C54.6107 160.673 54.5106 162.159 54.1076 163.664L51.7471 172.473ZM37.0145 159.084L36.0787 162.576L48.628 165.939L49.5639 162.446C49.7626 161.704 49.7958 160.962 49.6634 160.22C49.5104 159.472 49.2192 158.787 48.7898 158.164C48.366 157.52 47.8087 156.962 47.118 156.49C46.4329 155.997 45.6576 155.635 44.7921 155.403C43.906 155.166 43.0431 155.089 42.2034 155.173C41.3486 155.231 40.5767 155.433 39.8878 155.779C39.1839 156.098 38.5787 156.543 38.0723 157.114C37.5659 157.685 37.2133 158.342 37.0145 159.084Z" fill="black"/>
<path d="M65.5363 133.094L46.1374 121.894L54.6014 107.234L58.592 109.538L52.88 119.431L56.5658 121.559L60.5978 114.576L64.4776 116.816L60.4456 123.799L64.2977 126.023L70.0737 116.019L74.0643 118.323L65.5363 133.094Z" fill="black"/>
<path d="M124.929 70.3983L121.409 64.3014L117.848 70.4219L113.837 68.082L117.342 61.9936L110.317 61.9852L110.296 57.3414L117.377 57.3178L113.857 51.221L117.903 48.885L121.423 54.9818L124.928 48.8934L128.94 51.2332L125.434 57.3216L132.46 57.33L132.48 61.9739L125.455 61.9654L128.975 68.0623L124.929 70.3983Z" fill="black"/>
<mask id="path-20-outside-1_1_530" maskUnits="userSpaceOnUse" x="135" y="135" width="136" height="136" fill="black">
<rect fill="white" x="135" y="135" width="136" height="136"/>
<path fill-rule="evenodd" clip-rule="evenodd" d="M213.4 143H193.4V192.6H143V212.6H193.4V263H213.4V212.6H263V192.6H213.4V143Z"/>
</mask>
<path d="M193.4 143V135H185.4V143H193.4ZM213.4 143H221.4V135H213.4V143ZM193.4 192.6V200.6H201.4V192.6H193.4ZM143 192.6V184.6H135V192.6H143ZM143 212.6H135V220.6H143V212.6ZM193.4 212.6H201.4V204.6H193.4V212.6ZM193.4 263H185.4V271H193.4V263ZM213.4 263V271H221.4V263H213.4ZM213.4 212.6V204.6H205.4V212.6H213.4ZM263 212.6V220.6H271V212.6H263ZM263 192.6H271V184.6H263V192.6ZM213.4 192.6H205.4V200.6H213.4V192.6ZM193.4 151H213.4V135H193.4V151ZM201.4 192.6V143H185.4V192.6H201.4ZM143 200.6H193.4V184.6H143V200.6ZM151 212.6V192.6H135V212.6H151ZM193.4 204.6H143V220.6H193.4V204.6ZM201.4 263V212.6H185.4V263H201.4ZM213.4 255H193.4V271H213.4V255ZM205.4 212.6V263H221.4V212.6H205.4ZM263 204.6H213.4V220.6H263V204.6ZM255 192.6V212.6H271V192.6H255ZM213.4 200.6H263V184.6H213.4V200.6ZM205.4 143V192.6H221.4V143H205.4Z" fill="black" mask="url(#path-20-outside-1_1_530)"/>
</svg>
