<?xml version="1.0" encoding="utf-8"?>
<!-- Generator: Adobe Illustrator 19.2.0, SVG Export Plug-In . SVG Version: 6.00 Build 0)  -->
<svg version="1.1" id="Capa_1" xmlns="http://www.w3.org/2000/svg" xmlns:xlink="http://www.w3.org/1999/xlink" x="0px" y="0px"
	 viewBox="0 0 2800 1555" enable-background="new 0 0 2800 1555" xml:space="preserve">
<path fill="#002F59" d="M184.5,1360.2c2.7-1.4,5.5-1.2,8.4-1.2c120,0,240,0,360,0c1.6,0,3.2,0,4.8,0c0.4,0,0.7-0.2,0.6-0.6
	c-0.1-0.3-0.2-0.6-0.5-0.7c-2.5-1.3-5.2-2.6-7.7-4c-7.2-4-13.7-8.9-19.1-15.1c-5-5.7-8.8-12.2-10.7-19.6c-5.6-21.4,7.3-41.9,29-46.2
	c9.7-1.9,19.1-0.7,28.4,2.3c5.1,1.6,4.1,2.4,6.9-2.6c9.3-16.4,18.6-32.9,27.8-49.3c0.5-1,1.1-2,1.6-2.9c0.5-0.9,0.1-1.5-0.6-2
	c-1.2-0.7-2.5-1.4-3.8-2.1c-3.1-1.7-6.2-3.4-9.2-5.1c-2.3-1.4-2.5-2.3-1.3-4.7c1-2,2.1-4,3.2-5.9c1.6-2.7,2.5-2.9,5.5-1.4
	c1.3,0.7,2.5,1.3,3.8,2c0.7,0.4,1.2-0.2,1.6-0.7c0.4-0.6,0.3-1.3-0.3-1.7c-1.5-0.9-3-1.7-4.5-2.7c-1.9-1.2-2.3-2.4-1.3-4.5
	c1.1-2.3,2.4-4.5,3.7-6.7c1.1-1.7,2.2-2.1,4.1-1.2c1.6,0.7,3.1,1.6,4.7,2.4c0.5,0.2,0.9,0.1,1.2-0.4c0.4-0.6,0.5-1.3-0.1-1.7
	c-1.6-1.1-3.3-2-4.9-3c-1.8-1.1-2.1-2.3-1.3-4c1.2-2.4,2.5-4.8,3.9-7.1c1.1-1.8,2.3-2.1,4.1-1.3c1.3,0.6,2.5,1.4,3.8,2
	c3.2,1.8,6.4,3.6,9.7,5.3c0.8,0.5,1.6,0.3,2.1-0.5c0.6-0.9,1.1-2,1.7-2.9c1-1.4,2.2-1.8,3.7-1c1.7,0.8,3.4,1.9,5,2.8
	c1.3,0.7,2.5,1.4,3.8,2c0.8,0.4,1.2-0.2,1.3-0.9c0.1-1.6,0.1-3.2,0.1-4.8c0-40.3,0-80.6,0-121c0-13.3,4-25.2,12.2-35.6
	c9.9-12.5,22.8-19.8,38.7-21.7c3.5-0.4,7-0.6,10.5-0.6c75.5,0,151,0,226.5,0c7.1,0,6.4,0.9,6.4-6.4c0-7.8,0-15.7,0-23.5
	c0-1.3,0-2.6-0.1-3.8c-0.1-1.4-0.6-1.9-2.2-1.9c-4.6,0-9.3,0-13.9,0c-2.4,0-4.8-0.3-7.1-0.8c-10.7-2.7-20.4-13.5-18.7-27.6
	c1.4-12.4,11.7-22,24.2-22.5c1.1,0,2.2,0,3.4,0c52.2,0,104.3,0,156.5,0c3,0,6,0.1,9,0.8c11.8,3,20.1,14.6,18.8,27.2
	c-1.3,13-12.4,22.8-24.8,22.9c-2.9,0-5.8,0-8.6,0.1c-1.5,0-1.9,0.5-2,2.1c-0.1,0.8-0.1,1.6-0.1,2.4c0,9,0,17.9,0,26.9
	c0,1,0,1.9,0.1,2.9c0.1,0.7,0.5,1.2,1.2,1.3c0.8,0.1,1.6,0.1,2.4,0.1c27.7,0,55.4,0,83,0c0.6,0,1.3,0,1.9-0.1
	c0.8-0.1,1.1-0.6,0.6-1.2c-0.3-0.4-0.6-0.7-0.9-1.1c-1.7-2-2.1-4.3-1.1-6.7c0.5-1.3,0.7-2.3,0.1-3.6c-1.5-3.4-0.3-6.3,2.5-8.4
	c1.4-1,2.9-1.9,4.6-2.6c2.1-0.9,4.2-1.5,6.4-2.1c3.3-1,3.3-0.9,3.4-4.1c0-1.4,0-2.9,0-4.3c0-186.5,0-373.1,0-559.6
	c0-11.4,1.4-22.6,4.8-33.6c10.9-34.5,40.8-61,76.2-67.8c6.3-1.2,12.6-1.9,19.1-1.9c0.8,0,1.6,0,2.4,0c243.7,0,487.3,0,731,0
	c10.5,0,20.7,1.1,30.9,3.8c39.7,10.4,71,42.6,80.2,82.6c1.9,8.4,2.9,17,2.9,25.7c0,302.1,0,604.1,0,906.2c0,5.8-0.6,11.5-2.4,17
	c-3.5,10.9-10.1,19.5-19.6,25.9c-1,0.7-2.1,1.4-3.1,2.2c-0.1,0.1,0,0.6,0.1,0.8c0.2,0.2,0.6,0.2,0.9,0.2c1.3,0,2.6,0,3.8,0
	c31.4,0,62.7,0,94.1,0c1.4,0,2.9,0,4.3-0.1c0.7-0.1,1.1-0.5,1-1.3c-0.1-0.8-0.5-1.7-0.3-2.4c0.9-2.6,0.8-5.1-0.1-7.8
	c-0.8-2.2,0.4-4.3,2.2-6c2-1.9,4.4-3.1,7-4.1c5.2-2.1,10.7-3.2,16.3-3.9c1.6-0.2,3.2-0.3,4.8-0.5c1.3-0.2,2.8,0,3.7-0.7
	c1.3-1-0.3-2.2-0.4-3.4c-0.1-2.2,0.6-4.1,2.1-5.6c1.7-1.7,3.8-2.9,6-3.9c3.2-1.4,6.6-2.4,10.1-3.1c6.1-1.3,12.3-2,18.6-2
	c1.8,0,1.9-0.1,2-1.9c0.1-1.8,0.5-3.5,1.9-4.8c1.1-1,1.1-2.1,1-3.5c-0.3-3.1,1.3-5.2,4-6.5c2-1,4.2-1.4,6.5-1.5
	c5-0.3,9.9,0.1,14.8,1.1c9.6,1.9,18.8,5,27.5,9.6c3.3,1.7,6.4,3.7,9.1,6.2c1.6,1.4,3,2.9,4,4.8c1.3,2.5,1.5,5-0.4,7.2
	c-1.2,1.3-1.7,2.6-1.4,4.3c0.2,1.5-0.3,2.8-1.2,4c-0.6,0.9-2.2,1.3-1.7,2.6c0.3,0.7,1.5,1,2.3,1.5c0.8,0.5,1.7,1,2.4,1.6
	c2.3,2.1,3.6,4.5,2.2,7.7c-0.5,1.1-0.7,2,0,3.2c1.5,2.5,1,4.8-0.4,7.2c-1,1.6-0.7,2.1,0.8,2.1c7.2,0,14.4,0,21.6,0
	c0.4,0,1,0,1.2-0.5c0.3-0.5,0-0.9-0.3-1.2c-0.3-0.4-0.7-0.7-1-1c-2-2.1-2.4-4.5-1.3-7.1c0.4-1.1,0.6-2,0.2-3.2
	c-1.4-4.5-0.6-6.8,3.2-9.4c3-2,6.3-3.1,9.7-4c6.1-1.5,12.3-2.2,18.5-2.3c7.7-0.1,15.4,0.2,22.9,2.1c2.5,0.6,4.9,1.4,7.3,2.4
	c1.6,0.7,3.1,1.7,4.5,2.8c2.5,2,3.4,4.6,2.2,7.7c-0.3,0.9-1.1,1.7-0.5,2.7c2.1,3.7,0.9,6.7-2,9.4c-0.4,0.3-0.7,0.8-0.2,1.2
	c0.2,0.2,0.5,0.3,0.8,0.4c1.6,0,3.2,0.1,4.8,0.1c48,0,96,0,144,0c1.8,0,3.5,0,5.3,0.2c1,0.1,1.7,0.8,1.8,1.9
	c0.1,1.2-0.5,2.3-1.6,2.6c-0.6,0.2-1.3,0.3-1.9,0.3c-1.4,0-2.9,0-4.3,0c-53.1,0-106.2,0-159.4,0c-29,0-57.9,0-86.9,0
	c-1.9,0-3.8,0.2-5.7,0.6c-3,0.6-6,1-9,1.5c-1.1,0.2-2.2,0.1-3.2,0.9c-5.8,0-11.5,0-17.3,0c-2.1-1.4-4.7-0.7-6.9-1.4
	c-4.9-1.7-10-1.6-15.1-1.5c-3.8,0.1-7.7,0.1-11.5,0c-5.3-0.1-10.5,0.1-15.6,1.4c-1.4,0.4-2.8,0.4-4.3,0.6c-1.4,0.2-2.9,0.2-4.2,0.9
	c-5.4,0-10.9,0-16.3,0c-0.9-0.7-2.1-0.7-3.2-0.9c-2.2-0.3-4.5-0.5-6.6-1.1c-2.8-0.8-5.6-1.1-8.5-0.9c-1.6,0.1-3.2,0-4.8,0
	c-672.8,0-1345.5,0-2018.3,0c-1.1,0-2.2-0.1-3.4,0c-2.5,0.2-4.7-0.4-6.7-1.9C184.5,1361.5,184.5,1360.9,184.5,1360.2z"/>
<path fill="#B2ACBF" d="M1191.7,675.3c0,93.6,0,187.2,0,280.8c0,1.4,0,2.9,0,4.3c0,0.6,0,1.3,0.1,1.9c0.1,1.2,0.8,1.6,1.9,1.6
	c0.3,0,0.6,0,1,0c7.7-0.4,15.3-0.6,23,0.4c1,0.1,1.9-0.2,2.6-0.9c2.3-2.2,5.1-3.1,8.2-3.7c2.2-0.4,4.4-0.6,6.7-0.7
	c9-0.1,17.8,1.4,26.5,3.8c5.9,1.6,11.6,3.7,16.8,6.8c2.4,1.4,4.6,2.9,6.4,5c2.1,2.5,3.3,6,0.7,9.1c-0.8,1-1.1,1.9-0.6,3.1
	c0.5,1.3,0.1,2.5-0.2,3.8c-0.6,2.2-0.5,2.2,1.8,2.8c1.1,0.3,2.2,0.5,3.2,0.9c20.5,6.2,34.7,19.2,42.6,39.1c3.1,7.8,4.2,16,4.2,24.4
	c0,87,0,174.1,0,261.1c0,5.1,0,10.2,0,15.4c0,8.6-3.1,15.9-9.4,21.8c-0.7,0.7-2.4,1.1-1.7,2.5c0.4,0.8,1.7,0.3,2.7,0.4
	c0.3,0,0.6,0,1,0c52.5,0,105,0,157.4,0c1.1,0,2.2,0,3.4-0.1c0.9-0.1,1.5-0.6,1.5-1.5c0.1-2.1,0.1-4.2,0.1-6.2
	c0-316.9,0-633.9,0-950.8c0-1.6,0-3.2,0-4.8c0.1-7,0.2-14.1,1.7-21c7.3-34,26.8-58.1,58.5-72.3c1-0.5,2.1-0.8,3.1-1.3
	c0.4-0.2,1-0.5,0.7-1c-0.1-0.3-0.8-0.3-1.2-0.4c-1.3,0-2.6,0-3.8,0c-27.8,0-55.7,0-83.5,0c-59.2,0-118.4,0-177.6,0
	c-6.4,0-12.8,0.5-19.1,1.6c-31.4,5.4-60.3,27.6-72.6,60.5c-4.4,11.7-6.1,23.8-6.1,36.2C1191.7,490.3,1191.7,582.8,1191.7,675.3z"/>
<path fill="#EDCFE4" d="M1496.6,870.3c0,160.6,0,321.3,0,481.9c0,7.7-0.9,6.8,7,6.8c192.3,0,384.6,0,576.9,0c1.4,0,2.9,0,4.3,0
	c13.7-0.5,25.2-5.5,34-16.1c7.3-8.7,10.3-18.9,10.3-30.2c0-302.1,0-604.1-0.1-906.2c0-4.6-0.3-9.3-0.9-13.9
	c-3.3-24.3-13.6-45.2-31.1-62.4c-21.3-20.8-47.1-30.7-76.8-30.8c-142.7,0-285.4,0-428.1,0c-4,0-8,0.2-12,0.6
	c-17.8,1.8-33.8,8.2-47.8,19.3c-19.5,15.5-31.2,35.6-34.9,60.4c-0.9,6.1-0.9,12.1-0.9,18.2C1496.6,555.5,1496.6,712.9,1496.6,870.3z
	"/>
<path fill="#AEDEF8" d="M1071,1358.6c77.1,0,154.2,0,231.3,0c2.2,0,4.5-0.1,6.7-0.1c9.9-0.3,20-8.2,21.9-19.5
	c0.4-2.4,0.5-4.8,0.5-7.2c0-74.1,0-148.1,0-222.2c0-6.5,0.6-6-5.9-6c-57-0.1-113.9-0.1-170.9-0.2c-7.7,0-6.9-0.9-6.9,6.9
	c0,17-0.1,33.9,0,50.9c0,6-1.7,11-7.2,14.2c-1.1,0.6-1.7,1.4-1.7,2.7c-0.1,1.4-0.3,2.9-0.9,4.2c-2.4,5.4-6.6,8.1-12.5,8.1
	c-15.4,0-30.7,0.1-46.1,0c-7.3,0-11.9-4-13.3-11.3c-0.4-1.9-0.9-3.1-2.6-4.2c-4.1-2.5-6-6.5-6.3-11.3c-0.1-1.4-0.1-2.9-0.1-4.3
	c0-16.2,0-32.3,0-48.5c0-8.4,1.2-7.3-7.4-7.3c-70.6,0-141.1,0-211.7,0c-1,0-1.9,0-2.9,0c-4.2,0.1-4.2,0.1-4.3,4.3c0,0.5,0,1,0,1.4
	c0,81.3,0,162.5,0,243.8c0,1.3,0,2.6,0.1,3.8c0.1,1.2,0.7,1.7,1.9,1.7c1.8,0,3.5,0.1,5.3,0.1C915.8,1358.6,993.4,1358.6,1071,1358.6
	z"/>
<path fill="#AEDEF8" d="M1078.1,996.9C1078.1,996.9,1078.1,996.9,1078.1,996.9c-63.3,0-126.7,0-190,0c-1.8,0-3.5,0-5.3,0
	c-11.2,0.1-21.5,3.2-30.5,9.9c-14,10.5-21.1,24.5-21.3,42c-0.1,14.7,0,29.4,0,44.1c0,5.9-0.3,5.3,5.5,5.3c71.7,0,143.3,0,215,0
	c1,0,1.9,0,2.9,0c2.6-0.1,2.8-0.2,2.9-2.7c0.1-2.1,0-4.2,0.1-6.2c0.3-4.5,2-8.5,5.9-11c1.9-1.3,2.7-2.7,3.1-4.9
	c1.3-6.9,6.1-10.9,13.1-10.9c15.4-0.1,30.7,0.1,46.1-0.1c6.7-0.1,13.1,5.1,13.4,11.8c0.1,1.6,0.7,2.6,2.1,3.4
	c4.6,2.6,6.6,6.8,6.8,11.9c0.1,2.1,0,4.2,0.1,6.2c0.1,1.9,0.4,2.3,2.2,2.4c0.8,0,1.6,0,2.4,0c12.8,0,25.6,0.1,38.4,0.1
	c44.8,0,89.6,0,134.4,0c0.8,0,1.6,0,2.4,0c3.7-0.1,3.8-0.1,3.9-3.7c0-0.8,0-1.6,0-2.4c0-11.4,0-22.7,0-34.1c0-3.2-0.2-6.4-0.6-9.6
	c-2.9-24.4-21.7-45.4-46.6-50.5c-6.5-1.3-13-1.4-19.6-1.4c-15.5,0-31,0.1-46.5,0.1c-1.3,0-2.6,0.1-3.8,0.2c-7.2,0.5-14.4,0.5-21.6,0
	c-1.3-0.1-2.6-0.2-3.8-0.2C1152,996.9,1115,996.9,1078.1,996.9z"/>
<path fill="#91CBE5" d="M825.9,1231c0-40.6,0-81.3,0-121.9c0-6,0.5-5.6-5.8-5.6c-51.7-0.1-103.3-0.2-155-0.2c-7.3,0-6.4-0.6-6.4,6.4
	c0,74.1,0,148.1,0,222.2c0,1.3,0,2.6,0,3.8c0.5,13.1,11.4,22.3,21.9,22.7c1.9,0.1,3.8,0.1,5.8,0.1c44.5,0,89,0,133.4,0
	c6.9,0,6.1,0.7,6.1-6.2C825.9,1312,825.9,1271.5,825.9,1231z"/>
<path fill="#91CBE5" d="M741.9,1098.3C741.9,1098.3,741.9,1098.3,741.9,1098.3c25.7,0.1,51.5,0.1,77.2,0.1c1.4,0,2.9,0,4.3,0
	c2-0.1,2.3-0.3,2.4-2.2c0.1-1.3,0-2.6,0-3.8c0-14.4-0.2-28.8,0-43.2c0.3-21.3,9.5-37.7,27.5-49.2c1-0.7,2.4-0.9,3-2.2
	c-1-1.5-2.6-0.8-3.9-0.8c-46.5,0-93.1,0-139.6,0c-3.3,0-6.8,0.1-10,0.7c-27.6,4.8-44.4,28.4-44.2,52.1c0.1,14.4,0,28.8,0,43.2
	c0,5.8-0.5,5.3,5.5,5.3C690.1,1098.3,716,1098.3,741.9,1098.3z"/>
<path fill="#AEDEF8" d="M1021.2,951.1c23,0,46,0,69.1,0c2.4,0,4.8-0.1,7.1-0.7c9.1-2.2,15.5-10.1,15.6-19.4
	c0.2-9.5-6.1-17.7-15.3-20.2c-2.7-0.7-5.4-0.8-8.1-0.8c-45.6,0-91.1,0-136.7,0c-1,0-1.9,0-2.9,0c-0.3,0-0.7,0-1,0.1
	c-0.3,0.1-0.6,0.2-0.7,0.4c-0.1,0.2-0.1,0.7,0,0.8c0.6,0.7,1.3,1.4,1.9,2.1c8.7,10.1,8.7,24-0.1,34.1c-0.6,0.7-1.3,1.4-1.9,2.2
	c-0.4,0.5,0,1,0.4,1.1c1.4,0.1,2.9,0.2,4.3,0.2C975.8,951.1,998.5,951.1,1021.2,951.1z"/>
<path fill="#EDC062" d="M1142.7,1126.5c0-11.2,0-22.4,0-33.6c0-1.4,0-2.9-0.1-4.3c-0.5-4.2-3.6-7.3-7.9-7.7c-1.1-0.1-2.2,0-3.4,0
	c-19.2,0-38.3,0-57.5,0c-1.1,0-2.2-0.1-3.4,0c-4.1,0.4-7.1,3.1-7.8,7.2c-0.2,1.4-0.3,2.9-0.3,4.3c0,22.7,0,45.4,0,68.1
	c0,1.4,0,2.9,0.3,4.3c0.7,4.1,3.7,6.9,7.8,7.2c1.1,0.1,2.2,0,3.4,0c19.2,0,38.3,0,57.5,0c1.1,0,2.2,0.1,3.4,0
	c4.2-0.4,7.4-3.5,7.9-7.7c0.2-1.4,0.1-2.9,0.1-4.3C1142.7,1148.9,1142.7,1137.7,1142.7,1126.5z"/>
<path fill="#FFFFFF" d="M653.7,1266.1c0-23,0-46,0-69c0-1.3,0.8-2.8-0.8-3.8c-1.2,0.7-1.5,2-2.1,3.1c-16.1,29.1-32.2,58.2-48.2,87.2
	c-0.4,0.7-0.8,1.4-1.1,2.1c-0.6,1-0.2,1.8,0.6,2.5c1.5,1.2,3,2.4,4.4,3.7c7,6.3,12.5,13.7,15.4,22.7c5.3,16.4-0.4,32.8-13.2,41.8
	c-0.6,0.5-1.2,1-1.9,1.5c-0.1,0.1-0.2,0.3-0.1,0.4c0.2,0.2,0.4,0.6,0.6,0.6c0.6,0.1,1.3,0.1,1.9,0.1c17.7,0,35.5,0,53.2,0
	c0.6,0,1.3,0,1.9-0.2c0.4-0.1,0.7-0.7,0.4-1.1c-0.6-0.7-1.4-1.3-2-2c-2.7-2.6-4.8-5.6-6.3-8.9c-1.8-4-2.5-8.2-2.5-12.6
	C653.8,1311.5,653.7,1288.8,653.7,1266.1z"/>
<path fill="#EDC062" d="M584.1,1358.6c5.5,0.1,10.9-0.8,15.9-3.2c12.1-5.7,18.5-15.3,18.7-28.8c0.1-7.1-2.2-13.5-5.9-19.5
	c-3.7-5.9-8.4-10.9-14-15c-5-3.7-4.8-3.7-1.8-9.2c17.6-31.9,35.2-63.8,52.9-95.7c0.6-1.1,1.2-2.2,1.8-3.4c0.4-0.8,0.4-1.6-0.4-2.1
	c-2.3-1.4-4.7-2.7-7.1-4c-0.8-0.4-1.5,0-2,0.7c-0.6,1-1.1,1.9-1.8,2.8c-0.9,1.2-2,1.5-3.4,0.9c-1.3-0.6-2.5-1.3-3.8-2
	c-3.4-1.8-6.7-3.7-10.1-5.5c-1.2-0.6-1.7,0.2-2.2,1.1c-0.7,1.2-0.7,1.8,0.3,2.4c1.2,0.8,2.5,1.4,3.7,2.2c2.4,1.5,2.7,2.4,1.6,5.1
	c-0.5,1.2-1,2.3-1.6,3.5c-1.9,4.1-2.6,4.3-6.5,2.3c-1.1-0.6-2.2-1.3-3.4-1.7c-0.9-0.3-1.4,0.4-1.8,1.2c-0.4,0.7-0.8,1.6,0.1,2.1
	c1.5,1,3,1.7,4.5,2.7c1.7,1.1,2.2,2.3,1.4,4c-1,2.2-2.1,4.3-3.4,6.3c-1,1.8-2.2,2.1-4.1,1.2c-1.6-0.7-3.1-1.6-4.7-2.4
	c-0.6-0.3-1.2-0.1-1.7,0.5c-1.1,1.3-1,2.3,0.4,3.2c3.6,2.1,7.3,4,10.9,6.1c4.4,2.5,4.5,3,2.1,7.4c-0.1,0.1-0.2,0.3-0.2,0.4
	c-10.6,18.8-21.2,37.6-31.8,56.4c-0.5,0.8-0.9,1.7-1.4,2.5c-0.9,1.2-1.9,1.6-3.3,1.2c-1.8-0.6-3.6-1.4-5.4-2
	c-8.3-2.8-16.7-4.2-25.4-2.6c-20.6,3.5-32.2,23.1-25.3,42.8c2.6,7.6,7.2,13.9,13.2,19.2c9.1,8.1,19.5,13.9,31.2,17.1
	C574.9,1358,579.4,1358.6,584.1,1358.6z"/>
<path fill="#FFFFFF" d="M1014.9,991.8c10.7,0,21.4,0,32.1,0c1.3,0,2.6,0,3.8-0.1c0.9,0,1.5-0.5,1.5-1.5c0.1-0.8,0.1-1.6,0.1-2.4
	c0-9.3,0-18.5,0-27.8c0-0.8,0-1.6-0.1-2.4c-0.1-0.9-0.7-1.4-1.6-1.5c-1-0.1-1.9-0.1-2.9-0.1c-21.7,0-43.5,0-65.2,0
	c-1,0-1.9,0-2.9,0.1c-0.9,0.1-1.4,0.6-1.5,1.5c-0.1,0.8-0.1,1.6-0.1,2.4c0,9.3,0,18.5,0,27.8c0,0.8,0,1.6,0.1,2.4
	c0.1,0.9,0.7,1.4,1.6,1.4c1.3,0.1,2.6,0.1,3.8,0.1C994.1,991.8,1004.5,991.8,1014.9,991.8z"/>
<path fill="#91CBE5" d="M951.8,930.5c0.1-10.2-8.1-20.4-20.5-20.3c-13,0.1-20.4,11-20.3,20.5c0.1,9.5,7.5,20.4,20.6,20.3
	C944,951,952,940.7,951.8,930.5z"/>
<path fill="#91CBE5" d="M1077.4,973.8C1077.4,973.8,1077.4,973.8,1077.4,973.8c0-5.1,0-10.2,0-15.3c0-1.5-0.6-2-2-2.1
	c-3.5-0.1-7,0-10.5-0.1c-1.6,0-3.2,0-4.8,0c-2,0.1-2.4,0.5-2.5,2.7c0,0.6,0,1.3,0,1.9c0,8.6,0,17.2,0,25.8c0,0.6,0,1.3,0,1.9
	c0.1,2.1,0.5,2.6,2.5,2.6c4.9,0,9.9,0,14.8,0c2,0,2.4-0.4,2.4-2.6C1077.5,983.7,1077.4,978.8,1077.4,973.8z"/>
<path fill="#91CBE5" d="M973.1,973.6c0-1.3,0-2.6,0-3.8c0-3.8,0-7.7-0.1-11.5c0-1.1-0.7-1.8-1.8-1.8c-5.4,0-10.8,0-16.3,0
	c-1.2,0-1.6,0.8-1.7,1.9c0,0.8,0,1.6,0,2.4c0,8.8,0,17.5,0,26.3c0,0.8,0,1.6,0.1,2.4c0.1,1.1,0.6,1.8,1.8,1.8c5.4,0,10.8,0,16.3,0
	c0.9,0,1.5-0.5,1.6-1.4c0.1-0.8,0.1-1.6,0.1-2.4C973.1,982.8,973.1,978.2,973.1,973.6z"/>
<path fill="#EDC062" d="M2411.9,1335.1c-8.2,0-14.5,0.6-20.3,2.1c-2.5,0.6-4.9,1.3-7.2,2.5c-1.1,0.6-2.2,1.2-3,2.3
	c-0.4,0.6-0.4,1.2,0,1.8c0.7,0.9,1.6,1.5,2.6,2.1c2.5,1.4,5.3,2.2,8.1,2.8c11.2,2.4,22.5,2.6,33.7,0.7c3.5-0.6,6.9-1.4,10.1-2.8
	c1.5-0.6,2.9-1.3,4-2.5c0.7-0.8,0.7-1.8,0-2.6c-1-1.1-2.2-1.8-3.6-2.3c-2.1-0.8-4.2-1.5-6.4-2.1
	C2423.8,1335.7,2417.5,1335,2411.9,1335.1z"/>
<path fill="#EDC062" d="M2302.8,1300.8c-1.4,0-2.9-0.1-4.3,0c-1.4,0.2-2.8,0.6-4.2,1c-1.2,0.4-1.6,1.6-0.9,2.7
	c0.7,1.1,1.5,2.1,2.4,2.9c2.1,2,4.5,3.6,7,5c7.8,4.4,16.2,7.5,25,9.4c4.7,1,9.4,1.9,14.2,1.8c2.3,0,4.5-0.3,6.5-1.2
	c1.2-0.5,1.5-1.6,0.9-2.7c-1.3-2.3-3.3-3.9-5.4-5.4c-4.4-3.2-9.3-5.5-14.4-7.5C2321.1,1303.6,2312.1,1301.2,2302.8,1300.8z"/>
<path fill="#EDC062" d="M1267.4,983.5c2.7-0.2,5.4-0.3,8.1-0.5c1.9-0.2,3.8-0.7,5.4-1.7c0.9-0.5,1.1-1.6,0.6-2.5
	c-0.8-1.4-2.1-2.4-3.4-3.3c-2.9-2.1-6.1-3.6-9.3-4.9c-9.7-3.9-19.9-5.9-30.3-6.6c-3.4-0.2-6.7,0.1-10,0.8c-1.2,0.3-2.4,0.7-3.6,1.3
	c-1.1,0.5-1.3,1.8-0.7,2.9c0.8,1.2,1.9,2.1,3.1,3c2.6,1.9,5.5,3.3,8.4,4.6C1245.9,980.6,1256.4,982.9,1267.4,983.5z"/>
<path fill="#EDC062" d="M2318.9,1353.3c3.5-0.2,7.4-0.4,11.2-0.8c4.8-0.6,9.5-1.5,14-3.2c1.8-0.7,3.6-1.5,5.2-2.5
	c3.1-1.9,3.1-3.6,0-5.2c-1.7-0.9-3.5-1.6-5.3-2.1c-8.8-2.2-17.7-2.7-26.7-1.7c-1,0.1-1.9,0.2-2.6,1c-4.3,4.2-9.9,5.8-15.5,7.1
	c-1.6,0.4-3.1,0.6-4.7,1c-0.4,0.1-1.1,0.2-0.9,0.8c0.1,0.4,0.4,0.9,0.8,1.1c2.3,1.5,5,2.2,7.6,2.7
	C2307.4,1352.8,2313,1353,2318.9,1353.3z"/>
<path fill="#EDC062" d="M2277.7,1334.5c8.1,0.2,15.9-0.8,23.4-3c1.2-0.3,2.4-0.8,3.5-1.4c0.4-0.2,0.5-0.8,0-1.2
	c-0.5-0.4-1.1-0.7-1.6-1c-4.5-2.2-8.8-4.5-12.5-7.8c-1.2-1.1-2.6-1.2-4-1.2c-7.5-0.2-15,0.6-22.3,2.4c-2.8,0.7-5.5,1.7-8.1,2.7
	c-1.5,0.6-2.9,1.4-3.9,2.7c-0.7,0.8-0.7,1.8,0.1,2.5c1.8,1.7,4.1,2.5,6.4,3.1C2264.9,1334.1,2271.4,1334.7,2277.7,1334.5z"/>
<path fill="#EDC062" d="M1204.9,984c3.2,0.1,8-0.5,12.7-1.1c1.3-0.2,1.7-0.9,1-2c-2.3-3.3-2.5-6.5,0.2-9.6c0.1-0.1,0.2-0.3,0.2-0.4
	c0-0.5,0.1-1-0.5-1.2c-1.2-0.3-2.5-0.7-3.7-0.8c-6.2-0.7-12.4-0.7-18.6-0.2c-5.2,0.4-10.4,1.3-15.4,3.1c-1.9,0.7-3.9,1.5-5.5,2.9
	c-1.2,1.1-1.2,2.2,0,3.2c2,1.7,4.4,2.6,6.9,3.3C1189,983.2,1196.1,983.9,1204.9,984z"/>
<path fill="#D3B18F" d="M1103.2,1177.1c-9.6,0-19.2,0-28.8,0c-3.2,0-3.8,1.2-2.2,4.1c1.4,2.6,3.7,3.9,6.6,4.2
	c0.9,0.1,1.9,0.1,2.9,0.1c13.9,0,27.8,0,41.7,0c1.1,0,2.3,0.1,3.3-0.1c2.8-0.4,5.1-1.8,6.4-4.4c1.4-2.7,0.9-3.8-2.1-3.8
	C1121.7,1177,1112.5,1177.1,1103.2,1177.1z"/>
<path fill="#D3B18F" d="M1102.3,1075.9c8.8,0,17.6,0,26.4,0c1.3,0,2.6,0,3.8-0.1c1.1-0.1,1.6-0.9,1.3-2c-0.9-3.4-3.5-5.8-7.1-6.2
	c-0.9-0.1-1.9-0.1-2.9-0.1c-14.1,0-28.1,0-42.2,0c-0.8,0-1.6,0-2.4,0c-1.5,0-2.8,0.5-4.1,1.2c-1.9,1.1-3.1,2.7-3.6,4.8
	c-0.3,1.4,0.2,2.2,1.5,2.3c1.3,0.1,2.6,0.1,3.8,0.1C1085.3,1075.9,1093.8,1075.9,1102.3,1075.9z"/>
<path fill="#EDC062" d="M2244,1353.3c7-0.4,14-0.7,20.8-2.5c1.4-0.4,2.8-0.7,4.1-1.2c0.6-0.2,1.3-0.4,1.2-1.2c0-0.2-0.7-0.4-1.1-0.5
	c-0.8-0.1-1.6-0.1-2.4-0.2c-4.1-0.6-8.2-1.3-12.1-2.8c-3-1.2-5.8-2.7-7.3-5.8c-0.5-0.9-1.2-1.4-2.3-1.3c-7.4,0.4-14.6,1.6-21.5,4.3
	c-1.8,0.7-3.5,1.6-4.9,3c-1,1-0.9,2,0,2.9c1.6,1.4,3.5,2.1,5.5,2.8C2230.6,1352.7,2237.3,1353,2244,1353.3z"/>
<path fill="#D3B18F" d="M2410.6,1359.5c3-0.1,6.1-0.1,9.1-0.4c3.3-0.4,6.6-1,9.9-1.6c2.5-0.5,4.9-1.3,7.3-2.4
	c1.3-0.6,2.6-1.3,3.4-2.6c0.2-0.3,0.2-1,0-1.3c-0.2-0.3-0.9-0.5-1.2-0.4c-2.4,0.8-4.8,1.8-7.3,2.4c-10.5,2.5-21.2,2.9-31.9,1.7
	c-5.7-0.6-11.4-1.6-16.7-4c-0.1-0.1-0.3-0.2-0.5-0.1c-0.4,0.1-1,0.1-1.3,0.4c-0.5,0.5-0.2,1.2,0.3,1.7c0.9,0.7,1.7,1.4,2.7,2
	c2.2,1.3,4.7,2,7.2,2.6C2397.8,1358.8,2404.2,1359.5,2410.6,1359.5z"/>
<path fill="#D3B18F" d="M2218.4,1355.2c-0.1,0.9,0.5,1.5,1.1,2c2.4,1.7,5.2,2.5,8,3.1c13.5,2.8,27,2.2,40.3-1.4
	c2.3-0.6,4.5-1.7,6.7-2.6c1.2-0.5,2.3-1.3,2.9-2.4c0.2-0.4,0.1-0.9,0-1.3c-0.2-0.6-0.8-0.6-1.2-0.4c-3.1,1.3-6.2,2.5-9.5,3.4
	c-6.7,1.7-13.5,2.5-20.4,2.7c-8.6,0.2-17.2-0.4-25.5-3.3c-0.6-0.2-1.2-0.2-1.9-0.2C2218.7,1354.5,2218.6,1355,2218.4,1355.2z"/>
<path fill="#D3B18F" d="M2318.2,1362c4.5,0.1,8.9-0.4,13.4-0.9c4.7-0.6,9.4-1.6,13.9-3.4c1.8-0.7,3.5-1.5,5-2.7
	c0.5-0.4,0.9-0.9,1.2-1.5c0.1-0.2,0.2-0.7,0-0.9c-0.3-0.3-0.9-0.7-1.1-0.6c-3.1,1.2-6.2,2.5-9.5,3.3c-6.2,1.6-12.6,2.4-18.9,2.6
	c-9.1,0.4-18.2-0.2-27-3.2c-0.6-0.2-1.2-0.3-1.9-0.3c-0.2,0-0.6,0.3-0.7,0.5c-0.1,0.3-0.1,0.7,0,0.9c0.5,0.6,1,1.2,1.7,1.7
	c2.2,1.4,4.6,2.1,7.1,2.7C2307.1,1361.5,2312.6,1361.9,2318.2,1362z"/>
<path fill="#D3B18F" d="M2338.1,1332.1c2.3,0.1,4.5-0.2,6.6-0.8c0.7-0.2,1.4-0.8,2-1.2c0.2-0.1,0.2-0.6,0.1-0.9
	c-0.1-0.2-0.4-0.6-0.6-0.6c-0.9-0.1-1.9-0.1-2.9-0.1c-2.9-0.1-5.8,0-8.6-0.4c-9.4-1.2-18.4-3.9-27.1-7.7c-5.3-2.3-10.3-5.1-14.7-8.9
	c-0.4-0.3-0.8-0.6-1.2-0.8c-0.2-0.1-0.7-0.1-0.9,0.1c-0.2,0.2-0.4,0.5-0.4,0.8c-0.1,0.9,0.3,1.5,0.8,2.2c1.5,2.1,3.6,3.6,5.7,5
	c4.5,3.1,9.4,5.4,14.5,7.3C2320.1,1329.5,2328.9,1331.7,2338.1,1332.1z"/>
<path fill="#D3B18F" d="M2278,1343.3c5.5-0.1,10.8-0.3,16-1.3c4.4-0.9,8.8-1.8,12.8-3.7c1.6-0.8,3.2-1.5,4.2-3.1
	c0.2-0.3,0.2-0.9,0.1-1.3c-0.2-0.5-0.8-0.6-1.2-0.4c-3.1,1.3-6.2,2.5-9.5,3.4c-11.5,2.9-23.1,3.1-34.8,1.9
	c-3.6-0.4-7.3-1.1-10.7-2.5c-0.6-0.2-1.2-0.4-1.8-0.5c-0.3,0-0.6,0.2-0.8,0.4c-0.3,0.4-0.4,0.9-0.1,1.3c0.4,0.5,0.8,1.1,1.3,1.3
	c1.7,0.8,3.5,1.7,5.3,2.3C2265.1,1343,2271.6,1343.3,2278,1343.3z"/>
<path fill="#D3B18F" d="M1265.7,991.9c0.6,0,1.3,0,1.9,0c3,0,6.1,0,9-1c0.9-0.3,1.8-0.7,2.6-1.2c0.3-0.2,0.4-0.8,0.5-1.2
	c0.1-0.7-0.5-0.8-0.9-0.8c-0.6-0.1-1.3,0-1.9,0.1c-7.9,1.2-15.6,0.4-23.3-1.1c-10.3-2-20.2-4.9-29-10.8c-0.4-0.3-0.8-0.5-1.3-0.6
	c-0.2-0.1-0.6,0-0.8,0.2c-0.2,0.2-0.3,0.5-0.3,0.8c0,1,0.7,1.8,1.4,2.4c2,1.9,4.3,3.3,6.7,4.5
	C1241.4,988.8,1253.3,991.4,1265.7,991.9z"/>
<path fill="#D3B18F" d="M1203.9,992.6c4.6,0.2,9.3-0.3,14.1-1.1c3-0.5,5.9-1.3,8.8-2.1c0.6-0.2,1.4-0.6,1.3-1.2
	c-0.1-0.5-0.8-0.9-1.3-1.2c-1.5-1-3.1-0.5-4.6-0.1c-8.6,1.9-17.4,2.1-26.2,1.5c-6.4-0.4-12.7-1.4-18.7-3.8c-0.6-0.2-1.2-0.4-1.8-0.5
	c-0.2,0-0.6,0.2-0.8,0.4c-0.3,0.4-0.4,0.9-0.1,1.3c0.6,1,1.6,1.6,2.5,2.1c2.4,1.3,5,2.1,7.6,2.7
	C1191,992.1,1197.3,992.8,1203.9,992.6z"/>
<path fill="#FFFFFF" d="M2284.5,1358.9c0.6-0.1,2.1,0.6,3-0.5c0.7-0.8,0-1.8-0.1-2.7c0-1.3,0.3-2.5,0.8-3.7c0.3-0.6,0.2-1.2-0.1-1.8
	c-1-2.3-3.3-3.1-5.9-1.8c-0.4,0.2-0.7,0.7-0.4,1.2c1.4,2.7,1,5.2-0.8,7.5c-0.1,0.1-0.2,0.3-0.2,0.4c-0.3,0.7-0.1,1.3,0.7,1.4
	C2282.3,1359,2283.1,1358.9,2284.5,1358.9z"/>
<path fill="#002F59" d="M2611.3,529.8c-0.8,0.6-1.6,1-2.6,1c-1.4,0-2.9,0-4.3,0c-114.8,0-229.7,0-344.5,0c-1.6,0-3.2,0-4.8-0.1
	c-1.9-0.1-2.6-0.8-2.8-2.6c-0.1-1.1-0.1-2.2-0.1-3.4c0-21,0-41.9,0-62.9c0-6.1,0-6.1,6.2-6.1c25.3,0,50.5,0,75.8,0
	c1.3,0,2.6,0,3.8,0c2.4-0.1,2.7-0.4,2.7-2.9c0-1.3,0-2.6,0-3.8c0-18.9,0-37.7,0-56.6c0-1.4,0-2.9,0.1-4.3c0.2-1.5,1-2.3,2.5-2.4
	c1.1-0.1,2.2-0.1,3.4-0.1c56.8,0,113.6,0,170.3,0c6,0,6,0,6,6.2c0,19.5,0,39,0,58.5c0,5.8-0.2,5.5,5.5,5.5c25.7,0,51.5,0,77.2,0
	c1.9,0,3.9-0.5,5.5,1C2611.3,481.2,2611.3,505.5,2611.3,529.8z"/>
<path fill="#FFFFFF" d="M2343.2,460.7c-26.7,0-53.4,0-80.1,0c-6.6,0-6-0.6-6,5.8c0,17.9,0,35.8,0,53.7c0,1.1,0,2.2,0,3.4
	c0.1,1.9,0.4,2.3,2.2,2.4c1.3,0.1,2.6,0,3.8,0c53.4,0,106.8,0,160.3,0c0.8,0,1.6,0,2.4,0c3.8-0.1,3.8-0.1,3.9-3.7c0-0.8,0-1.6,0-2.4
	c0-17.8,0-35.5,0-53.3c0-6.6,0.4-6-5.9-6C2396.9,460.7,2370.1,460.7,2343.2,460.7z"/>
<path fill="#FFFFFF" d="M2431.3,455.9c27,0,54.1,0,81.1,0c1.4,0,2.9,0,4.3-0.1c0.9-0.1,1.4-0.7,1.5-1.6c0.1-1.1,0.1-2.2,0.1-3.4
	c0-18.4,0-36.8,0-55.2c0-5.4,0.3-5.1-5.3-5.1c-54.1,0-108.1,0-162.2,0c-5.4,0-5.2-0.2-5.2,5.3c0,18.2,0,36.5,0,54.7
	c0,5.8-0.1,5.4,5.6,5.4C2377.9,455.9,2404.6,455.9,2431.3,455.9z"/>
<path fill="#D6E9F6" d="M2520.9,526c27,0,54,0,81.1,0c5.1,0,5.2,0.4,5.2-5.3c0-18.2,0-36.5,0-54.7c0-5.9,0-5.4-5.6-5.4
	c-53.7,0-107.4,0-161.2,0c-1.3,0-2.6,0-3.8,0.1c-1.4,0.1-1.9,0.6-2,2.1c-0.1,1.1,0,2.2,0,3.4c0,18.1,0,36.1,0,54.2
	c0,6.1-0.4,5.6,5.8,5.6C2467.2,526,2494,526,2520.9,526z"/>
<path fill="#002F59" d="M2186.1,223.6c0.1,0.3,0.1,0.6,0.2,0.9c0.9,3,0.4,4-2.3,4.2c-0.9,0.1-1.9,0.1-2.9,0.1c-9.2,0-18.5,0-27.7,0
	c-1.1,0-2.2,0-3.3-0.1c-2-0.2-2.7-1.3-2.2-3.3c0.2-0.6,0.5-1.1,0.8-1.7C2161.1,223.6,2173.6,223.6,2186.1,223.6z"/>
<path fill="#002F59" d="M489.2,875.5c-28,0-56,0-84,0c-1.4,0-2.9,0-4.3-0.1c-1.6-0.1-2.3-0.8-2.4-2.4c-0.1-1.4-0.1-2.9-0.1-4.3
	c0-19.2,0-38.4,0-57.6c0-6.2,0.4-5.7-5.7-5.7c-25.3,0-50.5,0-75.8,0c-1.4,0-2.9,0-4.3,0c-2-0.1-2.8-0.9-2.9-3c-0.1-1.3,0-2.6,0-3.8
	c0-18.6,0-37.1,0-55.7c0-1.1,0-2.2,0-3.4c0-4.3-0.1-4.2-4.3-4.2c-25.9,0-51.8,0-77.7,0c-1.4,0-2.9,0-4.3-0.1
	c-1.2-0.1-2.1-0.9-2.2-2.2c-0.1-1.1-0.1-2.2-0.1-3.3c0-21.3,0-42.5,0-63.8c0-5.4,0.2-5.6,5.8-5.6c25.4,0,50.9,0,76.3,0
	c1.6,0,3.2,0,4.8-0.1c1.1-0.1,1.7-0.8,1.7-1.9c0-1.4,0.1-2.9,0.1-4.3c0-18.9,0-37.7,0-56.6c0-1.1,0-2.2,0-3.4c0.1-3.1,0.8-3.8,4.1-4
	c1.3-0.1,2.6,0,3.8,0c55.5,0,111,0,166.5,0c1.6,0,3.2,0,4.8,0.1c2.1,0.2,2.8,1,2.9,3c0.1,1.3,0,2.6,0,3.8c0,19.2,0,38.4,0,57.6
	c0,5.9-0.6,5.8,5.7,5.8c25.4,0,50.9,0,76.3,0c1.6,0,3.2,0.1,4.8,0.2c1.1,0.1,1.7,0.9,1.9,1.9c0.2,1.1,0.2,2.2,0.2,3.3
	c0,21.4,0,42.9,0,64.3c0,0.5,0,1,0,1.4c-0.2,3-0.9,3.7-3.7,3.8c-1.3,0.1-2.6,0-3.8,0c-25.3,0-50.5,0-75.8,0c-5.9,0-5.6-0.4-5.6,5.4
	c0,18.2,0,36.5,0,54.7c0,5.6-0.2,5.3,5.2,5.3c25.6,0,51.2,0,76.8,0c1.4,0,2.9,0,4.3,0.1c1.5,0.1,2.3,1,2.5,2.4
	c0.1,1.1,0.1,2.2,0.1,3.4c0,21.1,0,42.2,0,63.3c0,0.8,0,1.6,0,2.4c-0.2,2.6-0.9,3.2-3.7,3.3c-1.3,0.1-2.6,0-3.8,0
	C545.1,875.5,517.2,875.5,489.2,875.5z"/>
<path fill="#D6E9F6" d="M400.5,735.1c-26.9,0-53.8,0-80.6,0c-5.6,0-5.4-0.5-5.4,5.5c0,17.9,0,35.8,0,53.8c0,6.8-0.2,6,5.9,6
	c53.6,0,107.2,0,160.8,0c1.3,0,2.6,0,3.8-0.1c1.4-0.1,1.9-0.6,2-2.2c0.1-1.3,0-2.6,0-3.8c0-17.8,0-35.5,0-53.3c0-6.6,0.6-6-5.8-6
	C454.2,735.1,427.3,735.1,400.5,735.1z"/>
<path fill="#D6E9F6" d="M489.2,665c-26.5,0-53.1,0-79.6,0c-1.6,0-3.2,0-4.8,0.1c-0.9,0-1.5,0.6-1.5,1.5c-0.1,0.8-0.1,1.6-0.1,2.4
	c0,19,0,38,0,57.1c0,4.2,0.1,4.2,4.2,4.3c0.2,0,0.3,0,0.5,0c54.4,0,108.7,0,163.1,0c4.8,0,4.8,0,4.8-4.8c0-0.3,0-0.6,0-1
	c0-18.1,0-36.1,0-54.2c0-5.9,0.2-5.4-5.5-5.4C543.3,665,516.2,665,489.2,665z"/>
<path fill="#FFFFFF" d="M312,665c-26.5,0-53.1,0-79.6,0c-1.3,0-2.6,0-3.8,0c-2.6,0.1-2.7,0.3-2.8,2.7c0,1,0,1.9,0,2.9
	c0,18.1,0,36.1,0,54.2c0,5.7-0.4,5.5,5.5,5.5c53.9,0,107.8,0,161.7,0c5.7,0,5.5,0.2,5.5-5.5c0-18.1,0-36.1,0-54.2
	c0-6.1,0.4-5.7-5.8-5.7C365.7,665,338.9,665,312,665z"/>
<path fill="#D6E9F6" d="M401,594.8c-26.7,0-53.4,0-80.1,0c-1.6,0-3.2,0-4.8,0.1c-0.9,0.1-1.4,0.7-1.5,1.6c-0.1,1.1-0.1,2.2-0.1,3.4
	c0,18.4,0,36.8,0,55.2c0,5.1,0,5.1,4.9,5.1c54.2,0,108.4,0,162.6,0c1.1,0,2.2-0.1,3.3-0.1c0.9-0.1,1.4-0.7,1.5-1.6
	c0.1-1.4,0.1-2.9,0.1-4.3c0-17.8,0-35.5,0-53.3c0-6.5,0.7-6-5.8-6C454.4,594.8,427.7,594.8,401,594.8z"/>
<path fill="#FFFFFF" d="M489.3,870.7c26.5,0,53.1,0,79.6,0c1.4,0,2.9,0,4.3,0c2.1-0.1,2.4-0.4,2.5-2.6c0-0.8,0-1.6,0-2.4
	c0-18.4,0-36.8,0-55.2c0-5.6-0.1-5.1-5.3-5.1c-54,0-108.1,0-162.1,0c-5.4,0-5.1-0.3-5.1,5.3c0,18.2,0,36.5,0,54.7
	c0,5.8-0.3,5.4,5.5,5.4C435.6,870.7,462.4,870.7,489.3,870.7z"/>
<path fill="#002F59" d="M670.5,875.5c-4.8,0-9.6,0-14.4,0c-1.1,0-2.2,0-3.3-0.1c-1.2-0.1-2-1.1-1.9-2.3c0.1-1.2,0.9-2.1,2.1-2.2
	c0.6-0.1,1.3-0.1,1.9-0.1c10.4,0,20.7,0,31.1,0c0.9,0,2,0,2.8,0.4c0.9,0.4,1.4,1.3,1.3,2.3c-0.1,0.9-0.6,1.6-1.4,1.8
	c-0.9,0.2-1.9,0.3-2.8,0.3C680.7,875.5,675.6,875.5,670.5,875.5z"/>
<path fill="#002F59" d="M2337.7,875.5c-4.6,0-9.3,0-13.9,0c-1.1,0-2.2,0-3.3-0.1c-1.2-0.1-2-1.3-1.9-2.4c0.1-1,0.7-1.8,1.7-2
	c0.9-0.2,1.9-0.2,2.8-0.2c10.1,0,20.1,0,30.2,0c0.6,0,1.3,0,1.9,0.1c1.6,0.1,2.5,1,2.6,2.3c0.1,1.3-0.8,2.3-2.4,2.4
	c-1.1,0.1-2.2,0.1-3.3,0.1C2347.3,875.5,2342.5,875.5,2337.7,875.5z"/>
<path fill="#002F59" d="M1348.9,372.3c-29.8,0-59.5,0-89.3,0c-1.4,0-2.9,0.1-4.3,0c-5.6-0.5-9.4-4.8-9.3-10.3
	c0.1-5.3,3.9-9.3,9.3-9.7c1.3-0.1,2.6-0.1,3.8-0.1c59.5,0,119,0,178.5,0c1.4,0,2.9-0.1,4.3,0.1c5.1,0.5,8.8,4.4,9,9.5
	c0.2,5.3-3.4,9.7-8.7,10.4c-1.4,0.2-2.9,0.1-4.3,0.1C1408.4,372.3,1378.7,372.3,1348.9,372.3z"/>
<path fill="#EDCFE4" d="M1348.9,367.2c29.4,0,58.9,0,88.3,0c1.6,0,3.2,0,4.8-0.2c2.3-0.4,3.8-2,4-4.2c0.3-2.7-1.4-5-4.2-5.5
	c-1.6-0.2-3.2-0.2-4.8-0.2c-42.1,0-84.1,0-126.2,0c-17.1,0-34.2,0-51.4,0c-1.4,0-2.9-0.1-4.3,0.2c-2.6,0.5-4.2,2.8-4,5.2
	c0.2,2.3,1.8,4.1,4.3,4.5c1.6,0.2,3.2,0.1,4.8,0.1C1289.8,367.2,1319.4,367.2,1348.9,367.2z"/>
<path fill="#002F59" d="M1568,855.5c0-143.2,0-286.4,0-429.6c0-6.6,0.5-13.1,2.4-19.4c6-20.3,23.9-35.5,44.4-38.2
	c2.9-0.4,5.7-0.6,8.6-0.6c129.4,0,258.9,0,388.3,0c29.2,0,51.6,19.5,58.6,43.4c1.5,5.1,2.4,10.3,2.5,15.6c0,1.4,0,2.9,0,4.3
	c0,278.1,0,556.1,0,834.2c0,3.4,0,6.7-0.8,10c-2.8,12.2-14,20.8-25.5,20.9c-1.4,0-2.9,0-4.3,0c-155.5,0-311,0-466.5,0
	c-1.4,0-2.9,0-4.3,0c-2.3-0.1-3-0.9-3.2-3.3c-0.1-0.8,0-1.6,0-2.4c0-1.6,0-3.2,0-4.8C1568,1142.2,1568,998.9,1568,855.5z"/>
<path fill="#E0BDD7" d="M1573.1,852.7c0,143.8,0,287.6,0,431.4c0,8.2-0.8,7,6.8,7c153.9,0,307.8,0,461.7,0c1.4,0,2.9,0,4.3,0
	c10.6-0.3,19.2-7.6,21.4-18c0.5-2.4,0.6-4.8,0.6-7.2c0-278.5,0-557,0-835.5c0-3-0.1-6.1-0.6-9.1c-3.4-22.2-15.7-37.3-36.6-45.4
	c-6.8-2.6-14-3.3-21.2-3.3c-128,0-256,0-383.9,0c-3,0-6.1,0.2-9.1,0.5c-22.8,2.5-41.3,21.7-43,44.7c-0.3,3.8-0.3,7.7-0.3,11.5
	C1573.1,570.5,1573.1,711.6,1573.1,852.7z"/>
<path fill="#002F59" d="M978,1028.3c-30.9,0-61.7,0-92.6,0c-1.6,0-3.2,0-4.8-0.1c-3.5,0-7.4-3-7.6-7.8c-0.2-4.1,2.9-7.7,7.1-8.4
	c1.1-0.2,2.2-0.1,3.4-0.1c3.2,0,6.4,0,9.6,0c59.3,0,118.7,0,178,0c1.8,0,3.5-0.1,5.3,0.2c3.7,0.6,6.4,3.5,6.8,7.1
	c0.4,3.6-1.3,6.7-4.5,8.3c-1,0.5-2.1,0.8-3.2,0.8c-1.6,0.1-3.2,0.1-4.8,0.1C1039.7,1028.3,1008.8,1028.3,978,1028.3z"/>
<path fill="#FFFFFF" d="M977.7,1023.3c30.7,0,61.4,0,92.1,0c1.4,0,2.9,0.1,4.3,0c0.8,0,1.6-0.2,2.3-0.6c1.1-0.5,1.7-1.5,1.6-2.7
	c-0.1-1.2-0.7-2.2-1.9-2.6c-0.7-0.3-1.5-0.4-2.3-0.5c-1.4-0.1-2.9,0-4.3,0c-61.1,0-122.1,0-183.2,0c-1.3,0-2.6,0-3.8,0
	c-0.6,0-1.3,0.1-1.9,0.2c-1.5,0.4-2.5,1.7-2.5,3.1c0.1,1.4,1.2,2.7,2.7,2.9c1.6,0.2,3.2,0.1,4.8,0.1
	C916.3,1023.3,947,1023.3,977.7,1023.3z"/>
<path fill="#002F59" d="M750.8,1028.3c-14.5,0-29.1,0-43.6,0c-1.4,0-2.9,0-4.3-0.1c-4.1-0.4-7.2-3.4-7.5-7.4
	c-0.3-3.9,2.3-7.6,6.2-8.6c1.2-0.3,2.5-0.3,3.8-0.3c30.2,0,60.4,0,90.7,0c1.4,0,2.9-0.1,4.3,0.4c3.7,1.2,6.2,4.7,5.9,8.4
	c-0.3,4-3.3,7.1-7.4,7.5c-1.4,0.1-2.9,0.1-4.3,0.1C779.9,1028.3,765.3,1028.3,750.8,1028.3z"/>
<path fill="#AEDEF8" d="M750.6,1023.3c14.5,0,29.1,0,43.6,0c1.4,0,2.9,0,4.3-0.2c1.5-0.2,2.5-1.6,2.4-3.1c-0.1-1.3-0.9-2.5-2.3-2.8
	c-1.2-0.3-2.5-0.3-3.8-0.3c-29.5,0-59.1,0-88.6,0c-1.1,0-2.2,0-3.3,0.3c-1.5,0.3-2.6,1.7-2.5,3.1c0.1,1.4,1.2,2.8,2.7,2.9
	c1.4,0.2,2.9,0.1,4.3,0.1C721.8,1023.3,736.2,1023.3,750.6,1023.3z"/>
<path fill="#002F59" d="M1102.1,1154.5c-2.7,0-5.4,0.1-8.1,0c-2.5-0.1-3.4-1.2-3.1-3.8c0.6-5.1,1.4-10.1,2.1-15.2c0.4-3,0.9-6,1.4-9
	c0.3-1.9,0.1-3.3-1.5-4.7c-2.7-2.5-4-5.7-4.1-9.4c-0.1-6.2,3.6-11.5,9.5-13.5c5.6-1.9,11.9,0.1,15.4,4.9c3.7,5,3.6,11.5,0,16.6
	c-1.1,1.5-3.3,2.3-3.4,4.4c-0.1,1.7,0.3,3.5,0.5,5.2c0.6,6,1.2,12.1,1.8,18.1c0.6,6.4,0.3,7-6.2,6.7c-1.4-0.1-2.9,0-4.3,0
	C1102.1,1154.7,1102.1,1154.6,1102.1,1154.5z"/>
<path fill="#002F59" d="M607.1,1325.2c0.4,8.4-5.2,18.3-16,21.5c-10,2.9-20.4-1.3-25.7-10.1c-0.8-1.3-0.9-3.3-2.6-3.8
	c-1.3-0.4-2.8,0-4.3,0c-10,0.5-20.5-6.6-22.6-18.9c-1.8-11,4.8-21.8,15.6-24.9c10.5-3.1,20,1.1,25.3,8.9c0.6,0.9,1.2,1.9,1.6,2.9
	c0.6,1.6,1.6,2.1,3.3,2c2.9-0.3,5.7-0.2,8.6,0.5C599.3,1305.4,607.5,1314.1,607.1,1325.2z"/>
<path fill="#FFFFFF" d="M602.1,1325.2c0.2-12.2-11.7-19.6-21-17.2c-0.9,0.2-1.9,0.5-2.8,0.6c-1.5,0.2-2.5-0.4-3-1.8
	c-0.5-1.2-0.7-2.5-1.3-3.6c-3.2-7.3-11-11.4-18.9-10.1c-7.7,1.3-13.7,7.9-14.4,15.8c-0.7,7.5,4.1,15,11.4,17.7
	c3.7,1.4,7.5,1.4,11.3,0.3c2.4-0.7,3.8,0.1,4.4,2.3c0.3,1.2,0.8,2.4,1.4,3.6c3.6,7.3,11.7,11,19.7,9.2
	C596.5,1340.2,602.1,1333.1,602.1,1325.2z"/>
<path fill="#002F59" d="M1931.1,917.1c-0.1,0.2-0.3,0.9-0.6,1.4c-0.7,0.9-1.5,1.7-2.2,2.5c-0.5,0.6-0.5,1.2,0,1.7
	c0.8,1,1.7,1.9,2.5,2.9c15.1,17.2,24.2,37.1,27.5,59.7c0.6,3.8,0.8,7.6,1.1,11.5c0.1,1.2,0.7,1.7,1.8,1.8c2.2,0,4.5,0,6.7,0.1
	c0.9,0,1.9,0.2,2.8,0.5c1,0.4,1.4,1.3,1.3,2.3c-0.1,0.9-0.5,1.6-1.3,1.9c-0.9,0.3-1.9,0.4-2.8,0.5c-2.2,0.1-4.5,0-6.7,0.1
	c-1.1,0-1.8,0.5-1.8,1.7c-0.2,2.2-0.4,4.5-0.6,6.7c-2.3,24.5-11.8,46-27.9,64.5c-1,1.2-2.6,2.3-2.9,3.7c-0.4,1.7,1.8,2.4,2.7,3.7
	c0.3,0.4,0.6,0.7,0.9,1.1c0.6,1,0.4,2.3-0.4,3.1c-0.8,0.8-2.1,0.9-3.1,0.1c-1.1-0.9-2.1-1.9-3.2-2.9c-0.8-0.8-1.6-1-2.5-0.2
	c-1.3,1.2-2.6,2.3-4,3.5c-17.2,14.3-36.8,22.9-59,25.8c-3.3,0.4-6.7,0.7-10,0.8c-2.7,0.1-2.9,0.3-3,3.2c-0.1,2.1,0,4.2,0,6.2
	c0,1,0,1.9-0.1,2.9c-0.2,1.3-1.1,2.1-2.2,2.1c-1.4,0-2.4-0.8-2.5-2.3c-0.1-2.1-0.1-4.2-0.1-6.2c0-6.4,0.5-5.5-5.5-6
	c-24.8-2.1-46.8-11.2-65.7-27.4c-1.5-1.2-2.8-3.1-4.4-3.5c-1.9-0.4-2.9,2.2-4.4,3.3c-0.3,0.2-0.5,0.4-0.7,0.6
	c-1,0.6-2.3,0.6-3.1-0.1c-0.9-0.8-1-2.4-0.1-3.5c0.9-1.1,2-2.1,3-3.1c1.4-1.5,1.4-1.7,0.1-3.2c-0.5-0.6-1.1-1.2-1.6-1.8
	c-15.7-18-24.8-39-27.6-62.7c-0.3-2.4-0.3-4.8-0.5-7.2c-0.2-2.7-0.4-2.9-3.2-2.9c-2.6-0.1-5.1,0-7.7,0c-1,0-1.9,0-2.8-0.6
	c-0.7-0.5-1.1-1.1-1.1-2c0-0.9,0.5-1.5,1.2-2c0.8-0.6,1.8-0.6,2.8-0.6c2.7,0,5.4,0,8.2,0c2.1-0.1,2.5-0.4,2.7-2.5
	c0.3-3.7,0.5-7.3,1-11c3.2-22.3,12.3-41.9,26.9-59c0.9-1.1,2.3-2.1,2.6-3.4c0.3-1.5-1.6-2.2-2.4-3.3c-0.2-0.2-0.4-0.5-0.6-0.7
	c-1-1.3-1-2.6-0.1-3.5c1-1,2.5-1,3.8,0.2c0.9,0.7,1.6,1.5,2.4,2.3c0.8,0.9,1.6,0.8,2.5,0c0.7-0.7,1.4-1.3,2.1-1.9
	c16.8-14.9,36.4-24.1,58.6-27.6c3.9-0.6,8-0.8,11.9-1.2c1.6-0.2,2-0.4,2-2c0.1-2.4,0-4.8,0.1-7.2c0-1,0-1.9,0.3-2.8
	c0.3-1,1.1-1.5,2.2-1.6c1,0,1.9,0.4,2.2,1.5c0.2,0.9,0.3,1.9,0.3,2.8c0,0.6,0,1.3,0,1.9c0.2,2.2-0.8,4.8,0.6,6.5
	c1.5,1.9,4.2,0.8,6.4,1c24.5,2.1,46.2,10.8,65.1,26.6c0.5,0.4,1,0.9,1.5,1.3c1.1,0.9,2.1,2.2,3.4,2.6c1.6,0.5,2.3-1.4,3.4-2.2
	c0.8-0.6,1.7-0.9,2.7-0.6C1930.4,914.9,1931.2,915.9,1931.1,917.1z M1954,993.4C1954,993.4,1954,993.4,1954,993.4
	c-0.1-1.6-0.2-3.2-0.3-4.8c-0.2-1.4-0.4-2.8-0.7-4.3c-3.2-20.9-12-39.3-25.9-55.3c-0.7-0.8-1.5-1.7-2.3-2.5c-0.6-0.6-1.4-0.7-2.1,0
	c-0.9,0.9-1.8,1.8-2.9,2.5c-0.9,0.6-2.4,0.3-3-0.5c-0.7-0.9-0.6-1.8-0.2-2.7c0.3-0.6,0.8-1,1.2-1.5c2.2-2.6,2.2-2.6-0.1-4.8
	c-0.4-0.3-0.7-0.6-1.1-1c-16.3-14-35.1-22.5-56.4-25.6c-3.8-0.6-7.6-0.7-11.5-1c-1.5-0.1-2,0.4-2.1,2c-0.1,1.3,0,2.6-0.1,3.8
	c0,1.9,0,3.8-0.2,5.7c-0.1,1.2-1.2,2-2.3,2c-1.1,0-2.2-0.9-2.4-2c-0.1-0.8-0.1-1.6-0.1-2.4c0-2.2,0-4.5,0-6.7
	c-0.1-2.2-0.5-2.6-2.6-2.4c-4.3,0.4-8.6,0.9-12.8,1.6c-20.7,3.6-38.8,12.6-54.4,26.6c-0.6,0.5-1.2,1.1-1.7,1.7
	c-0.3,0.4-0.4,0.9-0.1,1.3c0.6,0.8,1.2,1.5,1.7,2.3c0.6,0.9,0.4,1.8-0.3,2.6c-0.8,1-1.9,1.2-3,0.6c-0.5-0.3-1-0.8-1.5-1.2
	c-1.4-1-1.6-0.9-2.8,0.3c-0.6,0.6-1.1,1.2-1.6,1.8c-15.4,17.9-24.1,38.6-26.4,62.1c-0.2,1.7-0.2,3.5-0.2,5.3c0,0.9,0.5,1.5,1.4,1.6
	c2.2,0.1,4.5,0.1,6.7,0.1c1.1,0,2.2,0,3.2,0.6c0.7,0.5,1.1,1.1,1.1,2c0,0.9-0.4,1.5-1.1,2c-0.9,0.6-1.8,0.5-2.8,0.5
	c-2.2,0-4.5,0-6.7,0.1c-1.5,0.1-1.9,0.5-1.9,2.1c0,3,0.4,6.1,0.7,9.1c2.8,21.7,11.4,40.8,25.6,57.4c1,1.2,1.8,2.9,3.4,3.2
	c1.4,0.3,1.9-1.5,3.1-2.1c0.1-0.1,0.3-0.1,0.4-0.2c1-0.3,1.9-0.3,2.6,0.5c0.8,0.8,0.9,1.7,0.5,2.6c-0.3,0.7-0.9,1.3-1.4,1.9
	c-1.2,1.6-1.2,1.8,0.2,3.1c0.8,0.8,1.7,1.5,2.5,2.2c16,13.8,34.5,22.3,55.4,25.6c3.3,0.5,6.7,0.8,10,1c2.3,0.2,2.6-0.2,2.7-2.3
	c0.1-2.2,0-4.5,0-6.7c0-0.8,0.1-1.6,0.3-2.3c0.4-1,1.2-1.5,2.2-1.5c1,0,1.9,0.6,2.1,1.6c0.2,1.1,0.3,2.2,0.3,3.3
	c0.1,2.1,0,4.2,0.1,6.2c0,1.1,0.7,1.8,1.9,1.7c2.9-0.2,5.7-0.3,8.6-0.7c22.3-2.4,41.9-11.1,59-25.5c1-0.8,1.9-1.7,2.8-2.6
	c0.6-0.6,0.7-1.4,0-2.1c-1-1.1-2-2.1-2.9-3.2c-0.9-1.2-0.8-2.5,0.3-3.4c0.9-0.8,2-0.9,3.1-0.1c0.8,0.6,1.4,1.3,2.1,1.9
	c2.3,2.1,2.3,2.1,4.4-0.2c0.5-0.6,1.1-1.2,1.6-1.8c13.1-15.1,21.4-32.5,25.1-52.1c0.9-4.6,1.4-9.2,1.5-13.8c0.1-2.9-0.1-3.1-2.7-3.2
	c-1,0-1.9,0-2.9-0.1c-1.8-0.2-2.9-1.1-2.9-2.6c0-1.4,1.1-2.3,3-2.5c1-0.1,1.9,0,2.9-0.1c2.4-0.1,2.8-0.5,2.7-2.9
	C1954.1,995,1954,994.2,1954,993.4z"/>
<path fill="#002F59" d="M1702.5,671.8c0.4-78.1,63.1-137.5,136.9-138.2c74.7-0.7,138.4,59.3,139.3,136.8
	c0.8,74.4-58.7,139.2-138.1,139.4C1765.8,809.8,1703.1,749.9,1702.5,671.8z"/>
<path fill="#EA96B1" d="M1707.7,671.5c-0.1,74.7,60.8,133,132.5,133.2c72.6,0.2,133.1-58.1,133.5-132.2
	c0.4-75-59.9-133.4-131.8-133.9C1765.6,538.1,1707.5,599.9,1707.7,671.5z"/>
<path fill="#002F59" d="M1853,1064.5c-5.4,0.1-10.9-0.3-16.3-0.7c-28.4-2.3-51.9-25.4-55.1-53.9c-2.8-24.7,9.7-49.1,31.7-60.8
	c2-1.1,3.5-2.6,4.9-4.3c8.3-10.3,16.8-20.6,25.2-30.8c0.3-0.4,0.6-0.7,1-1.1c0.6-0.5,1.2-0.4,1.7,0.1c1,1,1.9,2.2,2.8,3.3
	c6.2,7.5,12.4,15,18.5,22.6c1.7,2.1,3.6,3.2,6.3,3.7c24.3,4.5,40.9,18.4,48.5,41.8c11.5,35.5-11,71.3-45.9,78.4
	c-3.5,0.7-7,1-10.5,1.2C1861.6,1064.3,1857.3,1064.3,1853,1064.5z"/>
<path fill="#E0BDD7" d="M1864.1,1059c29.1,0.4,56-23.5,56.1-56.1c0.1-28.8-22.7-56-56.2-56.1c-32.1-0.1-56.1,26-56.1,56.2
	C1807.9,1033.9,1833.3,1059.2,1864.1,1059z"/>
<path fill="#DD8AA8" d="M1795.8,991.7C1795.8,991.7,1795.8,991.7,1795.8,991.7c-2.1-0.1-4.1-0.1-6.2-0.1c-1.7,0-2.3,0.5-2.5,2.2
	c-0.8,5.2-0.8,10.5-0.3,15.7c0.1,1.2,0.9,1.7,2,1.7c4.3,0,8.6,0,12.9,0c0.9,0,1.5-0.6,1.5-1.5c-0.1-5.6-0.4-11.1,0.5-16.7
	c0.1-0.7-0.4-1.2-1.1-1.2C1800.2,991.7,1798,991.7,1795.8,991.7z"/>
<path fill="#DD8AA8" d="M1796.3,1016.4C1796.3,1016.4,1796.3,1016.4,1796.3,1016.4c-2.1,0-4.1,0-6.2,0c-1.4,0-1.8,0.5-1.5,1.7
	c1.6,6.4,4.6,12.2,8.4,17.6c0.6,0.9,1.5,1.2,2.5,1.2c3.8,0,7.7,0,11.5,0c1.3,0,1.7-0.7,1-1.8c-3.1-5.2-5.6-10.8-7.1-16.7
	c-0.3-1.3-1-1.9-2.3-1.9C1800.4,1016.5,1798.3,1016.4,1796.3,1016.4z"/>
<path fill="#DD8AA8" d="M1796.9,986.6C1796.9,986.6,1796.9,986.6,1796.9,986.6c1.4,0,2.9,0.1,4.3,0c3.3-0.1,3.5,0.5,4.8-3.2
	c0.9-2.7,2.2-5.3,3.3-8c0.8-2,2.5-3.7,2.9-6c-2.1-1.6-4.6-0.5-6.8-0.7c-1.9-0.2-3.8,0-5.7,0c-1,0-1.9,0.3-2.5,1.1
	c-3.4,4.5-6,9.4-7.7,14.8c-0.4,1.3,0,1.9,1.3,1.9C1792.8,986.7,1794.9,986.6,1796.9,986.6z"/>
<path fill="#DD8AA8" d="M1810,963.7C1810,963.8,1810,963.8,1810,963.7c1.1,0,2.2-0.1,3.3,0.1c2.4,0.3,4.2-0.6,5.8-2.5
	c4-4.6,8.8-8.3,14.1-11.4c1.1-0.6,2.4-0.9,3-2.1c-1.2-1.2-2.7-0.5-3.9-0.2c-2.5,0.5-5,1.1-7.4,1.9c-7.8,2.6-14.8,6.6-20.8,12.4
	c-0.3,0.3-0.5,0.8-0.5,1.2c0,0.6,0.6,0.6,1.1,0.6C1806.5,963.8,1808.3,963.7,1810,963.7z"/>
<path fill="#DD8AA8" d="M1810,1042c-1.9,0.1-3.8,0.2-5.7,0.3c-0.6,0-0.7,0.7-0.5,1.1c0.4,0.6,1,1.2,1.6,1.7
	c5.4,4.8,11.6,8.4,18.4,10.8c3.8,1.3,7.6,2.2,11.6,2.8c0.4,0.1,1.1,0.1,1.1-0.4c0-0.3-0.4-0.8-0.8-1c-0.9-0.6-1.9-1.1-2.9-1.7
	c-4.2-2.6-8.5-5.3-11.6-9.1C1818.2,1042.8,1814.7,1041.2,1810,1042z"/>
<path fill="#002F59" d="M1724.8,671.5c0.2-65,53-114.8,114.7-115c61.9-0.2,115.1,49.8,115.3,114.8c0.2,63.8-51.9,114.8-114.4,115.2
	C1780.7,786.9,1725.2,739.1,1724.8,671.5z"/>
<path fill="#E0BDD7" d="M1729.9,671.2c0.1,5,0.3,9.9,1,14.8c2.7,19.8,10.2,37.5,22.4,53.3c0.5,0.6,1,1.2,1.6,1.8
	c0.4,0.4,0.8,0.4,1.2,0c0.5-0.4,0.9-0.9,1.4-1.3c16-18.3,32-36.6,48-54.9c1.5-1.7,1.9-3.3,1.6-5.6c-1.9-11.4,0.7-21.6,8.6-30.2
	c1.4-1.5,1.7-2.7,1.2-4.7c-4.5-16-9-32-13.4-48c-2.2-7.9-4.3-15.7-6.6-23.6c-0.5-1.8-1.1-2-2.8-1.3c-1.3,0.6-2.6,1.2-3.9,1.9
	C1754.3,591.5,1729.9,628.8,1729.9,671.2z"/>
<path fill="#E0BDD7" d="M1842,781.5c5.8,0.2,15.4-1,23.2-3c37.1-9.6,62.8-32.3,77.3-67.7c0.4-0.9,0.6-1.8,1-2.7
	c0.4-0.9,0.1-1.6-0.8-1.9c-0.9-0.3-1.8-0.5-2.8-0.7c-8.3-1.8-16.6-3.5-24.9-5.3c-13.8-2.9-27.5-5.8-41.3-8.7c-2-0.4-3.4-0.2-4.4,1.7
	c-0.2,0.4-0.6,0.8-0.9,1.1c-7.3,8.8-16.6,13.3-28,13.2c-2.1,0-4.2,0-6.2-0.7c-2.7-1-4.6,0-6.1,2.2c-0.2,0.3-0.4,0.5-0.6,0.7
	c-10.6,12.2-21.3,24.3-31.9,36.5c-4.6,5.3-9.3,10.6-13.9,15.9c-1.3,1.5-1.2,1.9,0.4,3c0.9,0.6,1.9,1.2,2.9,1.7
	C1802,776.5,1820.1,781.3,1842,781.5z"/>
<path fill="#E0BDD7" d="M1840,561.8c-2.9,0-5.8-0.1-8.6,0c-2.8,0.2-3.1,0.7-2.4,3.2c1.2,4.6,2.6,9.2,3.8,13.9
	c5.2,18.6,10.4,37.3,15.5,55.9c0.7,2.6,1.9,4.3,4.7,5.2c7.7,2.5,13.6,7.6,17.9,14.5c0.3,0.4,0.5,0.8,0.7,1.2
	c0.5,1.4,1.6,1.9,2.9,2.2c0.8,0.2,1.6,0.3,2.3,0.5c14.5,3.1,29.1,6.2,43.6,9.2c8.9,1.9,17.8,3.7,26.8,5.6c2.2,0.5,2.5,0.2,2.5-2.1
	c0.1-7.1-0.7-14.1-2.1-21C1937.6,598.8,1892.3,561.6,1840,561.8z"/>
<path fill="#DD8AA8" d="M1821.9,563.1c-0.3,0-0.6,0-1,0.1c-6.2,0.9-12.2,2.6-18.1,4.7c-0.2,0.1-0.3,0.1-0.4,0.2
	c-0.8,0.3-1.3,0.9-1.1,1.9c0.3,1.1,0.5,2.2,0.8,3.2c4.3,15.2,8.5,30.5,12.8,45.7c2.1,7.4,4.1,14.8,6.2,22.2c0.6,2.2,0.9,2.3,3,1.2
	c5-2.7,10.3-4.2,16.1-4.3c0.8,0,1.6-0.1,2.4-0.2c0.6-0.1,0.8-0.6,0.8-1c-0.1-1.1-0.4-2.2-0.7-3.3c-6.2-22.2-12.3-44.3-18.5-66.5
	c-0.3-0.9-0.5-1.8-0.9-2.7C1823.1,563.6,1822.7,563.1,1821.9,563.1z"/>
<path fill="#DD8AA8" d="M1775.9,760.5c0.4-0.3,0.9-0.5,1.2-0.8c0.8-0.8,1.5-1.7,2.2-2.5c11-12.6,22.1-25.2,33.1-37.8
	c4-4.6,8-9.1,11.9-13.7c1.1-1.2,1-1.8-0.4-2.6c-5.6-3.3-10.1-7.8-13.3-13.5c-0.1-0.1-0.2-0.3-0.3-0.4c-0.5-0.6-1.1-0.7-1.6-0.2
	c-0.8,0.8-1.5,1.6-2.3,2.5c-14.9,17.1-29.8,34.1-44.8,51.2c-0.6,0.7-1.3,1.4-1.9,2.2c-0.6,0.7-0.6,1.5,0,2.1
	c4.4,4.8,9.4,9.1,14.7,13C1774.9,760.2,1775.4,760.3,1775.9,760.5z"/>
<path fill="#DD8AA8" d="M1949.3,680.8c0.1-1.5,0-1.7-2.1-2.2c-0.8-0.2-1.5-0.4-2.3-0.6c-8.9-1.9-17.8-3.7-26.7-5.6
	c-13.6-2.9-27.2-5.7-40.8-8.6c-1.9-0.4-2.4,0-2.1,1.9c1.2,5.9,0.9,11.7-0.9,17.5c-0.9,2.9-0.7,3.2,2.3,3.9c0.6,0.1,1.3,0.2,1.9,0.3
	c16.1,3.4,32.2,6.8,48.3,10.2c5.5,1.2,10.9,2.3,16.4,3.3c2.2,0.4,2.3,0.3,2.9-2C1947.8,693.2,1948.8,687.4,1949.3,680.8z"/>
<path fill="#EA96B1" d="M1811.5,672.1c-0.5,15.8,12.1,30.1,29.3,30.4c16.3,0.3,29.8-13,30.1-29.2c0.3-16.3-12.7-30-28.9-30.3
	C1825.4,642.7,1811.8,655.6,1811.5,672.1z"/>
<path fill="#002F59" d="M1864.1,953.9c25.7-0.2,49.1,20.5,49,49.1c-0.1,28.3-23,49-49.3,48.9c-26.9-0.2-48.7-21.8-48.7-48.9
	C1815,975.8,1836.9,953.9,1864.1,953.9z"/>
<path fill="#002F59" d="M1841.2,691.3c-7.8,0.5-18.5-5.8-18.7-18.5c-0.1-10.9,8.6-18.9,18.9-18.8c11.8,0.2,18.5,10,18.4,18.8
	C1859.8,683.1,1851.1,691.7,1841.2,691.3z"/>
<path fill="#EA96B1" d="M1854.9,672.7c0.1-6.8-5.7-13.7-13.8-13.5c-7.5,0.2-13.3,5.9-13.4,13.4c-0.1,7.6,6,13.8,13.5,13.8
	C1848.7,686.3,1854.9,680.2,1854.9,672.7z"/>
</svg>

